<?xml version="1.0" encoding="UTF-8" standalone="no"?>
<!-- Created with Inkscape (http://www.inkscape.org/) -->

<svg
   xmlns:dc="http://purl.org/dc/elements/1.1/"
   xmlns:cc="http://creativecommons.org/ns#"
   xmlns:rdf="http://www.w3.org/1999/02/22-rdf-syntax-ns#"
   xmlns:svg="http://www.w3.org/2000/svg"
   xmlns="http://www.w3.org/2000/svg"
   xmlns:sodipodi="http://sodipodi.sourceforge.net/DTD/sodipodi-0.dtd"
   xmlns:inkscape="http://www.inkscape.org/namespaces/inkscape"
   width="16px"
   height="16px"
   id="svg3771"
   version="1.1"
   inkscape:version="0.48.0 r9654"
   sodipodi:docname="zaujimavost_c.svg">
  <defs
     id="defs3773" />
  <sodipodi:namedview
     id="base"
     pagecolor="#ffffff"
     bordercolor="#666666"
     borderopacity="1.0"
     inkscape:pageopacity="0.0"
     inkscape:pageshadow="2"
     inkscape:zoom="22.197802"
     inkscape:cx="-1.0549505"
     inkscape:cy="8"
     inkscape:current-layer="layer1"
     showgrid="true"
     inkscape:grid-bbox="true"
     inkscape:document-units="px"
     inkscape:window-width="1218"
     inkscape:window-height="665"
     inkscape:window-x="1"
     inkscape:window-y="27"
     inkscape:window-maximized="0" />
  <metadata
     id="metadata3776">
    <rdf:RDF>
      <cc:Work
         rdf:about="">
        <dc:format>image/svg+xml</dc:format>
        <dc:type
           rdf:resource="http://purl.org/dc/dcmitype/StillImage" />
        <dc:title></dc:title>
      </cc:Work>
    </rdf:RDF>
  </metadata>
  <g
     id="layer1"
     inkscape:label="Layer 1"
     inkscape:groupmode="layer">
    <path
       style="fill:#a9a9a9;fill-opacity:1;stroke:#c6eea5;stroke-width:0;stroke-miterlimit:7.09999990000000025;stroke-opacity:1;stroke-dasharray:none"
       d="m 6.2405891,14.121035 c -0.00903,-1.08054 -0.033571,-1.98417 -0.05505,-2.00806 -0.041151,-0.0455 -1.8053133,0.22934 -2.8582805,0.44528 -0.6047432,0.12402 -0.8239639,0.0893 -0.8239639,-0.1303 0,-0.0616 0.4995006,-0.79724 1.1100013,-1.63468 L 4.7233159,9.2706542 4.3524491,9.0286842 c -0.2039876,-0.13308 -0.3928322,-0.24197 -0.4196707,-0.24197 -0.026893,0 -0.2995559,-0.17817 -0.6060608,-0.39593 -0.3065047,-0.21777 -0.7876857,-0.53971 -1.0693012,-0.71542 -0.3971097,-0.24778 -0.5046085,-0.37637 -0.4790694,-0.57299 0.026893,-0.20622 0.1322977,-0.27002 0.5652523,-0.34203 1.1156867,-0.18553 2.8212083,-0.60374 2.8212083,-0.69179 0,-0.0506 -0.2439476,-0.86559 -0.5420958,-1.81117 -0.5315011,-1.68557 -0.5802329,-2.06326 -0.266292,-2.06326 0.086093,0 0.7758459,0.39732 1.5329028,0.88294 0.7570571,0.48561 1.4224262,0.88293 1.4786121,0.88293 0.056132,0 0.2382623,-0.43238 0.4046361,-0.96085 0.666831,-2.11825 0.8790669,-2.62821 1.110218,-2.66744 0.1221904,-0.0207 0.2427564,0.0322 0.2681148,0.11772 0.046926,0.15793 0.6765229,2.09829 0.9768544,3.01024 0.0906,0.27519 0.204097,0.50033 0.252178,0.50033 0.048,0 0.678888,-0.38791 1.401797,-0.86202 1.507309,-0.98855 1.600964,-1.03541 1.798977,-0.90007 0.117859,0.0806 0.0379,0.4461 -0.415808,1.90213 -0.308959,0.99133 -0.570596,1.85086 -0.581406,1.91005 -0.01859,0.10139 1.826449,0.55083 2.934609,0.71488 0.430302,0.0637 0.505114,0.11326 0.501901,0.33252 -0.0036,0.2043 -0.300675,0.45205 -1.437226,1.19617 -0.788392,0.51617 -1.433437,0.98341 -1.433437,1.03832 0,0.0549 0.479088,0.7520498 1.064609,1.5492208 0.585538,0.79716 1.064608,1.50863 1.064608,1.58105 0,0.1863 -0.413317,0.16509 -2.022748,-0.10378 -0.77514,-0.1295 -1.475505,-0.23545 -1.556365,-0.23545 -0.119302,0 -0.147097,0.37761 -0.147097,2.00132 0,2.54336 -0.0016,2.544 -1.490452,0.58862 -0.5915849,-0.77698 -1.1188984,-1.4127 -1.1718176,-1.4127 -0.052883,0 -0.5634834,0.63572 -1.1346199,1.4127 -0.7468052,1.01595 -1.1031247,1.4127 -1.2687586,1.4127 -0.2262959,0 -0.2306095,-0.0344 -0.2461496,-1.96462 z m 1.8052232,-1.80257 c 0.3756678,-0.51799 0.7554327,-0.94138 0.8439079,-0.94086 0.088439,5.1e-4 0.4722467,0.42316 0.8528415,0.93922 l 0.6919913,0.93829 0.02654,-1.02752 c 0.03664,-1.41828 0.07489,-1.55742 0.427899,-1.55662 0.159913,3.6e-4 0.458422,0.0483 0.663348,0.10646 0.56769,0.16121 1.27753,0.23473 1.27753,0.13231 0,-0.0502 -0.292301,-0.49627 -0.649558,-0.991181 -0.35726,-0.4949098 -0.624634,-0.9716798 -0.594151,-1.0594898 0.0305,-0.0878 0.444723,-0.41388 0.92058,-0.7246 0.475855,-0.31073 0.886033,-0.60225 0.911517,-0.64784 0.02546,-0.0456 -0.204275,-0.12451 -0.510582,-0.1754 -0.306288,-0.0509 -0.580827,-0.0999 -0.61012,-0.10892 -0.02924,-0.009 -0.280786,-0.0568 -0.558918,-0.10615 -0.623676,-0.11069 -0.636978,-0.22565 -0.185939,-1.60685 0.175796,-0.53852 0.298906,-1.00218 0.273422,-1.03035 -0.02545,-0.0282 -0.46131,0.21887 -0.968517,0.54898 -0.507207,0.33011 -0.963914,0.6002 -1.0149012,0.6002 -0.1326595,0 -0.255463,-0.28834 -0.5906467,-1.38637 -0.1626201,-0.53247 -0.3255105,-0.96813 -0.3621677,-0.96813 -0.036639,0 -0.2310968,0.50857 -0.4320883,1.13016 -0.2009915,0.62158 -0.4215118,1.15539 -0.490043,1.18625 -0.1164153,0.0524 -0.5017928,-0.1563 -1.6053689,-0.86923 -0.2488567,-0.16077 -0.4524653,-0.23851 -0.4524653,-0.17277 0,0.0657 0.1436685,0.56981 0.3193916,1.12015 0.1756149,0.55034 0.3193735,1.08192 0.3193735,1.18129 0,0.1896 -0.2538383,0.26641 -1.6259082,0.49202 -0.2794497,0.0459 -0.5309056,0.12437 -0.558791,0.17428 -0.027795,0.0499 0.1070298,0.1886 0.2996281,0.30822 1.0822062,0.67183 1.4591014,0.93822 1.5036277,1.06278 0.027254,0.0764 -0.088619,0.3413 -0.2575202,0.58863 -0.1689368,0.24732 -0.4804953,0.7050398 -0.69228,1.0171608 l -0.3850711,0.56748 0.5121709,-0.0775 c 0.2816876,-0.0426 0.6798263,-0.12554 0.8847703,-0.18422 0.2049261,-0.0587 0.5043557,-0.10698 0.665369,-0.10734 l 0.2927697,-6.6e-4 0.00147,1.03009 c 0.00122,0.87398 0.068044,1.55985 0.1517905,1.55985 0.012634,0 0.3293545,-0.4238 0.7050402,-0.94179 z"
       id="path4757-6"
       sodipodi:nodetypes="cssscccssssssssssssssssssssssssssssssssccscccssssssssssssssssssssssssssscccscccsc"
       inkscape:connector-curvature="0" />
    <path
       style="fill:#000000;fill-opacity:1;stroke:#000000;stroke-width:0;stroke-miterlimit:7.09999990000000025;stroke-opacity:1;stroke-dasharray:none"
       d="m 4.7352853,13.914599 c -0.00948,-1.08054 -0.03527,-1.98417 -0.057835,-2.00806 -0.043234,-0.0455 -1.8966768,0.22934 -3.0029327,0.44528 -0.6353481,0.12402 -0.86566322,0.0893 -0.86566322,-0.1303 0,-0.0616 0.52477942,-0.79724 1.16617642,-1.63468 L 3.1412257,9.0642186 2.7515901,8.8222486 c -0.214311,-0.13308 -0.4127128,-0.24197 -0.4409096,-0.24197 -0.028254,0 -0.3147158,-0.17817 -0.6367324,-0.39593 -0.3220163,-0.21777 -0.82754906,-0.53971 -1.12341652,-0.71542 -0.41720673,-0.24778 -0.5301457,-0.37637 -0.50331416,-0.57299 0.0282537,-0.20622 0.13899305,-0.27002 0.59385874,-0.34203 1.17214954,-0.18553 2.96398434,-0.60374 2.96398434,-0.69179 0,-0.0506 -0.2562934,-0.86559 -0.5695302,-1.81117 -0.5583994,-1.68557 -0.6095975,-2.06326 -0.2797686,-2.06326 0.09045,0 0.81511,0.39732 1.6104802,0.88294 0.7953703,0.48561 1.4944125,0.88293 1.5534418,0.88293 0.058972,0 0.2503203,-0.43238 0.425114,-0.96085 0.7005781,-2.11824996 0.9235548,-2.62820996 1.166404,-2.66743996 0.1283742,-0.0207 0.2550418,0.0322 0.2816837,0.11772 0.049302,0.15793 0.7107609,2.09828996 1.0262921,3.01023996 0.095191,0.27519 0.2144249,0.50033 0.2649401,0.50033 0.05044,0 0.7132451,-0.38791 1.4727394,-0.86202 1.58359,-0.98855 1.681986,-1.03541 1.89002,-0.90007 0.123822,0.0806 0.03982,0.4461 -0.436852,1.90213 -0.324595,0.99133 -0.599472,1.85086 -0.61083,1.91005 -0.01953,0.10139 1.918882,0.55083 3.083124,0.71488 0.452078,0.0637 0.530677,0.11326 0.527301,0.33252 -0.0038,0.2043 -0.315891,0.45205 -1.50996,1.19617 -0.82829,0.51617 -1.505981,0.98341 -1.505981,1.03832 0,0.0549 0.503334,0.75205 1.118487,1.5492204 0.615172,0.79716 1.118487,1.50863 1.118487,1.58105 0,0.1863 -0.434235,0.16509 -2.125116,-0.10378 -0.814369,-0.1295 -1.550179,-0.23545 -1.63513,-0.23545 -0.12534,0 -0.154541,0.37761 -0.154541,2.00132 0,2.54336 -0.0017,2.544 -1.5658815,0.58862 -0.6215247,-0.77698 -1.1755247,-1.4127 -1.2311221,-1.4127 -0.05556,0 -0.5920004,0.63572 -1.1920409,1.4127 -0.7845997,1.01595 -1.1589518,1.4127 -1.3329681,1.4127 -0.2377483,0 -0.2422802,-0.0344 -0.2586068,-1.96462 z m 1.8965821,-1.80257 c 0.3946797,-0.51799 0.7936637,-0.94138 0.8866165,-0.94086 0.092915,5.1e-4 0.4961464,0.42316 0.8960028,0.93922 l 0.7270114,0.93829 0.027875,-1.02752 c 0.038493,-1.41828 0.078693,-1.55742 0.4495556,-1.55662 0.1680051,3.6e-4 0.4816213,0.0483 0.6969183,0.10646 0.596419,0.16121 1.342183,0.23473 1.342183,0.13231 0,-0.0502 -0.307093,-0.49627 -0.682431,-0.9911804 -0.375337,-0.49491 -0.656244,-0.97168 -0.624217,-1.05949 0.03205,-0.0878 0.46723,-0.41388 0.967169,-0.7246 0.499937,-0.31073 0.930873,-0.60225 0.957648,-0.64784 0.02674,-0.0456 -0.214615,-0.12451 -0.536423,-0.1754 -0.321789,-0.0509 -0.610222,-0.0999 -0.640997,-0.10892 -0.03072,-0.009 -0.294996,-0.0568 -0.587204,-0.10615 -0.6552394,-0.11069 -0.6692139,-0.22565 -0.195349,-1.60685 0.184693,-0.53852 0.314034,-1.00218 0.287259,-1.03035 -0.02674,-0.0282 -0.484656,0.21887 -1.017531,0.54898 -0.5328762,0.33011 -1.0126962,0.6002 -1.0662644,0.6002 -0.1393724,0 -0.2683913,-0.28834 -0.6205386,-1.38637 -0.1708497,-0.53247 -0.3419836,-0.96813 -0.380496,-0.96813 -0.038493,0 -0.2427921,0.50857 -0.4539555,1.13016 -0.2111632,0.62158 -0.4428437,1.15539 -0.5148431,1.18625 -0.122307,0.0524 -0.5271877,-0.1563 -1.6866136,-0.86923 -0.2614509,-0.16077 -0.4753638,-0.23851 -0.4753638,-0.17277 0,0.0657 0.1509393,0.56981 0.3355554,1.12015 0.1845024,0.55034 0.3355364,1.08192 0.3355364,1.18129 0,0.1896 -0.2666846,0.26641 -1.7081923,0.49202 -0.2935921,0.0459 -0.5577738,0.12437 -0.5870704,0.17428 -0.029202,0.0499 0.1124465,0.1886 0.3147918,0.30822 1.1369745,0.67183 1.5329436,0.93822 1.5797235,1.06278 0.028633,0.0764 -0.093104,0.3413 -0.270553,0.58863 -0.1774863,0.24732 -0.5048121,0.70504 -0.7273148,1.0171604 l -0.4045589,0.56748 0.5380908,-0.0775 c 0.2959434,-0.0426 0.714231,-0.12554 0.9295469,-0.18422 0.2152971,-0.0587 0.5298803,-0.10698 0.6990421,-0.10734 l 0.3075863,-6.6e-4 0.00154,1.03009 c 0.00129,0.87398 0.071487,1.55985 0.1594722,1.55985 0.013274,0 0.3460226,-0.4238 0.7407211,-0.94179 z"
       id="path4757"
       sodipodi:nodetypes="cssscccssssssssssssssssssssssssssssssssccscccssssssssssssssssssssssssssscccscccsc"
       inkscape:connector-curvature="0" />
    <path
       style="fill:#000000;fill-opacity:1;stroke:#000000;stroke-width:0;stroke-miterlimit:7.09999990000000025;stroke-opacity:1;stroke-dasharray:none"
       d="m 5.7076931,12.30649 c -0.00662,-0.790125 -0.024652,-1.450888 -0.040424,-1.468357 -0.030218,-0.03328 -1.3256882,0.1677 -2.0989091,0.325603 -0.4440785,0.09069 -0.6050581,0.06529 -0.6050581,-0.09528 0,-0.04505 0.3667963,-0.582966 0.8151027,-1.1953292 L 4.5935202,8.7597382 4.3211833,8.5828021 C 4.1713899,8.4854898 4.0327163,8.405866 4.0130081,8.405866 3.9932599,8.405866 3.7930365,8.2755824 3.567962,8.1163493 3.3428878,7.9571091 2.9895441,7.7216965 2.7827465,7.5932119 2.4911386,7.4120273 2.4121996,7.3179982 2.4309536,7.1742233 2.4507018,7.0234288 2.5281031,6.9767763 2.846033,6.9241203 3.6653105,6.7884549 4.917719,6.4826466 4.917719,6.4182616 c 0,-0.037 -0.179137,-0.6329468 -0.3980749,-1.3243846 C 4.1293492,3.861335 4.093564,3.5851561 4.324099,3.5851561 c 0.06322,0 0.5697236,0.290533 1.1256501,0.6456336 0.5559266,0.3550934 1.0445243,0.6456262 1.085783,0.6456262 0.041219,0 0.1749622,-0.3161699 0.2971347,-0.7026038 0.4896712,-1.5489312 0.6455215,-1.92183 0.8152618,-1.9505163 0.089727,-0.015137 0.1782621,0.023545 0.1968836,0.08608 0.034459,0.1154833 0.4967887,1.5343359 0.7173301,2.2011826 0.066534,0.2012276 0.1498731,0.365857 0.1851806,0.365857 0.035255,0 0.4985247,-0.2836521 1.0293751,-0.6303362 1.106855,-0.722859 1.17563,-0.7571246 1.321036,-0.6581597 0.08655,0.058937 0.02782,0.3262026 -0.305339,1.3908977 -0.226877,0.7248916 -0.419003,1.3534071 -0.426941,1.3966887 -0.01365,0.07414 1.341207,0.4027843 2.154958,0.5227428 0.315982,0.046579 0.370918,0.082819 0.368559,0.2431491 -0.0026,0.1493906 -0.220793,0.3305532 -1.055391,0.8746774 -0.578937,0.3774396 -1.05261,0.7191005 -1.05261,0.7592527 0,0.04014 0.351806,0.5499224 0.78177,1.1328389 0.429976,0.5829092 0.78177,1.1031592 0.78177,1.1561142 0,0.136229 -0.30351,0.120718 -1.485357,-0.07588 -0.569206,-0.09469 -1.083502,-0.172169 -1.142879,-0.172169 -0.087606,0 -0.1080167,0.276121 -0.1080167,1.46343 0,1.859785 -0.00125,1.860252 -1.0944777,0.430416 C 8.0793627,12.141922 7.692143,11.677064 7.653283,11.677064 c -0.038833,0 -0.4137805,0.464858 -0.8331807,1.03301 -0.5483984,0.742895 -0.810053,1.033012 -0.9316822,1.033012 -0.1661749,0 -0.1693425,-0.02515 -0.180754,-1.436593 z m 1.325622,-1.318097 c 0.2758626,-0.378769 0.5547337,-0.688366 0.6197034,-0.687986 0.064943,3.73e-4 0.3467832,0.309428 0.6262636,0.686787 l 0.5081475,0.686107 0.01948,-0.751354 c 0.026903,-1.0370925 0.055001,-1.138835 0.3142174,-1.1382507 0.1174281,2.643e-4 0.3366312,0.035318 0.487114,0.077851 0.416868,0.1178822 0.938123,0.1716427 0.938123,0.09675 0,-0.036718 -0.214644,-0.3628887 -0.476987,-0.7247831 C 9.8070332,8.8716216 9.6106923,8.5229922 9.6330777,8.4587827 9.6554739,8.3945797 9.9596495,8.1561408 10.309084,7.9289324 10.658516,7.7017169 10.95972,7.4885482 10.978434,7.4552114 10.997129,7.4218664 10.828429,7.3641644 10.6035,7.3269525 10.378584,7.2897321 10.176984,7.253901 10.155473,7.2473058 10.134,7.2407301 9.9492846,7.2057719 9.7450456,7.1696856 9.2870634,7.0887425 9.2772965,7.0046801 9.6085051,5.994703 9.7375974,5.6009202 9.8279998,5.2618774 9.8092861,5.2412786 9.7905957,5.2206578 9.470534,5.4013232 9.09808,5.64271 8.7256239,5.8840968 8.3902522,6.0815953 8.3528107,6.0815953 8.2553962,6.0815953 8.165218,5.870752 7.9190838,5.0678378 7.7996674,4.6784789 7.6800529,4.3599105 7.6531346,4.3599105 c -0.026905,0 -0.1697004,0.3718826 -0.3172936,0.8264088 C 7.1882477,5.6408382 7.026314,6.0311769 6.9759897,6.0537427 6.8905029,6.0920591 6.6075103,5.9394513 5.797126,5.4181343 5.614384,5.3005741 5.464869,5.2437282 5.464869,5.2917993 c 0,0.048043 0.1054994,0.4166631 0.2345374,0.8190891 0.1289586,0.402426 0.2345243,0.791134 0.2345243,0.8637965 0,0.1386415 -0.1864,0.1948074 -1.1939463,0.3597806 -0.2052072,0.033563 -0.3898578,0.090943 -0.4103347,0.127439 -0.020411,0.036488 0.078595,0.1379103 0.2200246,0.2253802 C 5.3443662,8.178548 5.62113,8.3733409 5.653827,8.4644231 5.6738398,8.5202891 5.5887516,8.7139924 5.4647231,8.8948475 5.3406685,9.0756964 5.1118832,9.4103958 4.9563642,9.6386275 L 4.6735966,10.053587 5.0496967,9.9969103 c 0.2068506,-0.031153 0.4992139,-0.0918 0.6497097,-0.1347081 0.1504826,-0.042923 0.3703615,-0.078231 0.4885977,-0.078491 l 0.2149884,-4.823e-4 0.00107,0.7532341 c 9.065e-4,0.639082 0.049966,1.140612 0.1114635,1.140612 0.00928,0 0.2418536,-0.309897 0.5177294,-0.688667 z"
       id="path4757-69"
       sodipodi:nodetypes="cssscccssssssssssssssssssssssssssssssssccscccssssssssssssssssssssssssssscccscccsc"
       inkscape:connector-curvature="0" />
  </g>
</svg>
