<?xml version="1.0" encoding="UTF-8" standalone="no"?>
<!-- Created with Inkscape (http://www.inkscape.org/) -->

<svg
   xmlns:dc="http://purl.org/dc/elements/1.1/"
   xmlns:cc="http://creativecommons.org/ns#"
   xmlns:rdf="http://www.w3.org/1999/02/22-rdf-syntax-ns#"
   xmlns:svg="http://www.w3.org/2000/svg"
   xmlns="http://www.w3.org/2000/svg"
   xmlns:sodipodi="http://sodipodi.sourceforge.net/DTD/sodipodi-0.dtd"
   xmlns:inkscape="http://www.inkscape.org/namespaces/inkscape"
   width="16px"
   height="16px"
   id="svg3996"
   version="1.1"
   inkscape:version="0.48.0 r9654"
   sodipodi:docname="New document 2">
  <defs
     id="defs3998" />
  <sodipodi:namedview
     id="base"
     pagecolor="#ffffff"
     bordercolor="#666666"
     borderopacity="1.0"
     inkscape:pageopacity="0.0"
     inkscape:pageshadow="2"
     inkscape:zoom="15.696216"
     inkscape:cx="9.4223372"
     inkscape:cy="8.5673756"
     inkscape:current-layer="layer1"
     showgrid="true"
     inkscape:grid-bbox="true"
     inkscape:document-units="px"
     inkscape:window-width="770"
     inkscape:window-height="515"
     inkscape:window-x="487"
     inkscape:window-y="153"
     inkscape:window-maximized="0" />
  <metadata
     id="metadata4001">
    <rdf:RDF>
      <cc:Work
         rdf:about="">
        <dc:format>image/svg+xml</dc:format>
        <dc:type
           rdf:resource="http://purl.org/dc/dcmitype/StillImage" />
        <dc:title></dc:title>
      </cc:Work>
    </rdf:RDF>
  </metadata>
  <g
     id="layer1"
     inkscape:label="Layer 1"
     inkscape:groupmode="layer">
    <path
       style="font-size:medium;font-style:normal;font-variant:normal;font-weight:normal;font-stretch:normal;text-indent:0;text-align:start;text-decoration:none;line-height:normal;letter-spacing:normal;word-spacing:normal;text-transform:none;direction:ltr;block-progression:tb;writing-mode:lr-tb;text-anchor:start;color:#000000;fill:#f40500;fill-opacity:1;fill-rule:nonzero;stroke:#000000;stroke-width:1.49999988;stroke-miterlimit:4;stroke-opacity:1;stroke-dasharray:none;marker:none;visibility:visible;display:inline;overflow:visible;enable-background:accumulate;font-family:Bitstream Vera Sans;-inkscape-font-specification:Bitstream Vera Sans"
       d="M 1.7499156,0.98905487 C 1.6457232,0.98537733 1.5478721,1.0618711 1.5490548,1.1461292 l 0.066593,7.6524171 c 0.00167,0.1990647 0.1625283,0.3556217 0.3652025,0.4972596 0.2026674,0.1416378 0.4668281,0.2711127 0.7572571,0.3853114 0.5808582,0.2283979 1.2527609,0.3948567 1.7422292,0.3948567 0.6318069,0 1.3750916,-0.1988655 2.0999132,-0.3905174 0.7248216,-0.1916533 1.4333269,-0.374897 1.9022736,-0.374897 0.4689461,0 1.0338322,0.1802567 1.6412616,0.3722935 0.60743,0.192036 1.259768,0.3931209 1.939871,0.3931209 1.338822,0 2.824946,-0.6118117 2.824946,-0.6118117 0.06343,-0.025629 0.106242,-0.081548 0.106343,-0.1388505 l 0,-7.9995441 c -1.39e-4,-0.052624 -0.03589,-0.1042994 -0.09129,-0.1319511 -0.05542,-0.02765 -0.128616,-0.030356 -0.186908,-0.00695 0,0 -1.463908,0.5788343 -2.653086,0.5788343 -0.583901,0 -1.195256,-0.1813715 -1.79916,-0.3722935 C 9.6605912,1.2024768 9.0669115,1.0002767 8.4825232,1.0002767 c -0.5843863,0 -1.2979896,0.1992119 -2.0215016,0.3905185 -0.7235121,0.1913067 -1.4538253,0.3748972 -1.9806853,0.3748972 -0.526131,0 -1.1979636,-0.1849586 -1.7261182,-0.3748972 C 2.2260653,1.2008567 1.8412137,1.0115589 1.8412137,1.0115589 1.8137559,0.99803542 1.7820442,0.9901973 1.7499156,0.98900239 z"
       id="path15140"
       sodipodi:nodetypes="cccssssssscccscsssssscc"
       inkscape:connector-curvature="0" />
    <path
       style="font-size:medium;font-style:normal;font-variant:normal;font-weight:normal;font-stretch:normal;text-indent:0;text-align:start;text-decoration:none;line-height:normal;letter-spacing:normal;word-spacing:normal;text-transform:none;direction:ltr;block-progression:tb;writing-mode:lr-tb;text-anchor:start;color:#000000;fill:#000000;fill-opacity:1;fill-rule:evenodd;stroke:#000000;stroke-width:0.70000004999999998;stroke-miterlimit:4;stroke-opacity:1;stroke-dasharray:none;marker:none;visibility:visible;display:inline;overflow:visible;enable-background:accumulate;font-family:Bitstream Vera Sans;-inkscape-font-specification:Bitstream Vera Sans"
       d="m 0.96958842,0.83822626 c -0.0987488,6.261e-5 -0.18854555,0.0719478 -0.18862419,0.15098349 l 0,13.99924525 c 7.864e-5,0.07906 0.0898789,0.15092 0.18862419,0.150983 l 0.55322858,0 c 0.098749,-5.4e-5 0.1885456,-0.07194 0.1886241,-0.150983 l 0,-13.99924525 C 1.7113725,0.91016661 1.6215625,0.83828887 1.522817,0.83822626 l -0.55322858,0 z"
       id="path15180"
       sodipodi:nodetypes="ccccccccc"
       inkscape:connector-curvature="0" />
  </g>
</svg>
